<ttFont>
<head>
		<!-- Most of this table will be recalculated by the compiler -->
		<tableVersion value="1.0"/>
		<fontRevision value="1.0"/>
		<checkSumAdjustment value="0x9d4c52de"/>
		<magicNumber value="0x5f0f3cf5"/>
		<flags value="00000000 00001011"/>
		<unitsPerEm value="64"/>
		<created value="Wed Jun 20 16:28:02 2018"/>
		<modified value="Tue Dec  4 22:18:19 2018"/>
		<xMin value="4"/>
		<yMin value="-12"/>
		<xMax value="32"/>
		<yMax value="48"/>
		<macStyle value="00000000 00000000"/>
		<lowestRecPPEM value="8"/>
		<fontDirectionHint value="2"/>
		<indexToLocFormat value="0"/>
		<glyphDataFormat value="0"/>
	</head>
		<TTGlyph name=".notdef" xMin="8" yMin="0" xMax="28" yMax="48">
			<contour>
				<pt x="8" y="0" on="1"/>
				<pt x="8" y="48" on="1"/>
				<pt x="28" y="48" on="1"/>
				<pt x="28" y="0" on="1"/>
			</contour>
			<contour>
				<pt x="12" y="4" on="1"/>
				<pt x="24" y="4" on="1"/>
				<pt x="24" y="44" on="1"/>
				<pt x="12" y="44" on="1"/>
			</contour>
		</TTGlyph>
		<TTGlyph name="A" xMin="4" yMin="0" xMax="32" yMax="44">
			<contour>
				<pt x="4" y="0" on="1"/>
				<pt x="4" y="39" on="1"/>
				<pt x="9" y="44" on="1"/>
				<pt x="27" y="44" on="1"/>
				<pt x="32" y="39" on="1"/>
				<pt x="32" y="0" on="1"/>
				<pt x="28" y="0" on="1"/>
				<pt x="28" y="16" on="1"/>
				<pt x="8" y="16" on="1"/>
				<pt x="8" y="0" on="1"/>
			</contour>
			<contour>
				<pt x="8" y="20" on="1"/>
				<pt x="28" y="20" on="1"/>
				<pt x="28" y="40" on="1"/>
				<pt x="8" y="40" on="1"/>
			</contour>
		</TTGlyph>
		<TTGlyph name="B" xMin="4" yMin="0" xMax="32" yMax="44">
			<contour>
				<pt x="4" y="0" on="1"/>
				<pt x="4" y="44" on="1"/>
				<pt x="23" y="44" on="1"/>
				<pt x="28" y="39" on="1"/>
				<pt x="28" y="23" on="1"/>
				<pt x="32" y="19" on="1"/>
				<pt x="32" y="5" on="1"/>
				<pt x="27" y="0" on="1"/>
			</contour>
			<contour>
				<pt x="8" y="4" on="1"/>
				<pt x="28" y="4" on="1"/>
				<pt x="28" y="20" on="1"/>
				<pt x="8" y="20" on="1"/>
			</contour>
			<contour>
				<pt x="8" y="24" on="1"/>
				<pt x="24" y="24" on="1"/>
				<pt x="24" y="40" on="1"/>
				<pt x="8" y="40" on="1"/>
			</contour>
		</TTGlyph>
		<TTGlyph name="C" xMin="4" yMin="0" xMax="32" yMax="44">
			<contour>
				<pt x="4" y="5" on="1"/>
				<pt x="4" y="39" on="1"/>
				<pt x="9" y="44" on="1"/>
				<pt x="30" y="44" on="1"/>
				<pt x="32" y="40" on="1"/>
				<pt x="8" y="40" on="1"/>
				<pt x="8" y="4" on="1"/>
				<pt x="32" y="4" on="1"/>
				<pt x="30" y="0" on="1"/>
				<pt x="9" y="0" on="1"/>
			</contour>
		</TTGlyph>
		<TTGlyph name="D" xMin="4" yMin="0" xMax="32" yMax="44">
			<contour>
				<pt x="4" y="0" on="1"/>
				<pt x="4" y="44" on="1"/>
				<pt x="22" y="44" on="1"/>
				<pt x="32" y="34" on="1"/>
				<pt x="32" y="10" on="1"/>
				<pt x="22" y="0" on="1"/>
			</contour>
			<contour>
				<pt x="8" y="4" on="1"/>
				<pt x="21" y="4" on="1"/>
				<pt x="28" y="11" on="1"/>
				<pt x="28" y="33" on="1"/>
				<pt x="21" y="40" on="1"/>
				<pt x="8" y="40" on="1"/>
			</contour>
		</TTGlyph>
		<TTGlyph name="E" xMin="4" yMin="0" xMax="32" yMax="44">
			<contour>
				<pt x="4" y="0" on="1"/>
				<pt x="4" y="44" on="1"/>
				<pt x="32" y="44" on="1"/>
				<pt x="32" y="40" on="1"/>
				<pt x="8" y="40" on="1"/>
				<pt x="8" y="24" on="1"/>
				<pt x="28" y="24" on="1"/>
				<pt x="28" y="20" on="1"/>
				<pt x="8" y="20" on="1"/>
				<pt x="8" y="4" on="1"/>
				<pt x="32" y="4" on="1"/>
				<pt x="32" y="0" on="1"/>
			</contour>
		</TTGlyph>
		<TTGlyph name="F" xMin="4" yMin="0" xMax="32" yMax="44">
			<contour>
				<pt x="4" y="0" on="1"/>
				<pt x="4" y="44" on="1"/>
				<pt x="32" y="44" on="1"/>
				<pt x="32" y="40" on="1"/>
				<pt x="8" y="40" on="1"/>
				<pt x="8" y="24" on="1"/>
				<pt x="28" y="24" on="1"/>
				<pt x="28" y="20" on="1"/>
				<pt x="8" y="20" on="1"/>
				<pt x="8" y="0" on="1"/>
			</contour>
		</TTGlyph>
		<TTGlyph name="G" xMin="4" yMin="0" xMax="32" yMax="44">
			<contour>
				<pt x="4" y="5" on="1"/>
				<pt x="4" y="39" on="1"/>
				<pt x="9" y="44" on="1"/>
				<pt x="28" y="44" on="1"/>
				<pt x="30" y="40" on="1"/>
				<pt x="8" y="40" on="1"/>
				<pt x="8" y="4" on="1"/>
				<pt x="28" y="4" on="1"/>
				<pt x="28" y="20" on="1"/>
				<pt x="16" y="20" on="1"/>
				<pt x="16" y="24" on="1"/>
				<pt x="32" y="24" on="1"/>
				<pt x="32" y="0" on="1"/>
				<pt x="9" y="0" on="1"/>
			</contour>
		</TTGlyph>
		<TTGlyph name="H" xMin="4" yMin="0" xMax="32" yMax="44">
			<contour>
				<pt x="4" y="0" on="1"/>
				<pt x="4" y="44" on="1"/>
				<pt x="8" y="44" on="1"/>
				<pt x="8" y="24" on="1"/>
				<pt x="28" y="24" on="1"/>
				<pt x="28" y="44" on="1"/>
				<pt x="32" y="44" on="1"/>
				<pt x="32" y="0" on="1"/>
				<pt x="28" y="0" on="1"/>
				<pt x="28" y="20" on="1"/>
				<pt x="8" y="20" on="1"/>
				<pt x="8" y="0" on="1"/>
			</contour>
		</TTGlyph>
		<TTGlyph name="I" xMin="4" yMin="0" xMax="32" yMax="44">
			<contour>
				<pt x="4" y="0" on="1"/>
				<pt x="4" y="4" on="1"/>
				<pt x="16" y="4" on="1"/>
				<pt x="16" y="40" on="1"/>
				<pt x="4" y="40" on="1"/>
				<pt x="4" y="44" on="1"/>
				<pt x="32" y="44" on="1"/>
				<pt x="32" y="40" on="1"/>
				<pt x="20" y="40" on="1"/>
				<pt x="20" y="4" on="1"/>
				<pt x="32" y="4" on="1"/>
				<pt x="32" y="0" on="1"/>
			</contour>
		</TTGlyph>
		<TTGlyph name="J" xMin="4" yMin="0" xMax="32" yMax="44">
			<contour>
				<pt x="4" y="5" on="1"/>
				<pt x="4" y="16" on="1"/>
				<pt x="8" y="16" on="1"/>
				<pt x="8" y="4" on="1"/>
				<pt x="28" y="4" on="1"/>
				<pt x="28" y="40" on="1"/>
				<pt x="12" y="40" on="1"/>
				<pt x="12" y="44" on="1"/>
				<pt x="32" y="44" on="1"/>
				<pt x="32" y="5" on="1"/>
				<pt x="27" y="0" on="1"/>
				<pt x="9" y="0" on="1"/>
			</contour>
		</TTGlyph>
		<TTGlyph name="K" xMin="4" yMin="0" xMax="32" yMax="44">
			<contour>
				<pt x="4" y="0" on="1"/>
				<pt x="4" y="44" on="1"/>
				<pt x="8" y="44" on="1"/>
				<pt x="8" y="22" on="1"/>
				<pt x="29" y="44" on="1"/>
				<pt x="32" y="44" on="1"/>
				<pt x="32" y="41" on="1"/>
				<pt x="20" y="29" on="1"/>
				<pt x="32" y="3" on="1"/>
				<pt x="32" y="0" on="1"/>
				<pt x="29" y="0" on="1"/>
				<pt x="17" y="26" on="1"/>
				<pt x="8" y="17" on="1"/>
				<pt x="8" y="0" on="1"/>
			</contour>
		</TTGlyph>
		<TTGlyph name="L" xMin="4" yMin="0" xMax="32" yMax="44">
			<contour>
				<pt x="4" y="0" on="1"/>
				<pt x="4" y="44" on="1"/>
				<pt x="8" y="44" on="1"/>
				<pt x="8" y="4" on="1"/>
				<pt x="32" y="4" on="1"/>
				<pt x="32" y="0" on="1"/>
			</contour>
		</TTGlyph>
		<TTGlyph name="M" xMin="4" yMin="0" xMax="32" yMax="44">
			<contour>
				<pt x="4" y="0" on="1"/>
				<pt x="4" y="44" on="1"/>
				<pt x="10" y="44" on="1"/>
				<pt x="18" y="18" on="1"/>
				<pt x="26" y="44" on="1"/>
				<pt x="32" y="44" on="1"/>
				<pt x="32" y="0" on="1"/>
				<pt x="28" y="0" on="1"/>
				<pt x="28" y="38" on="1"/>
				<pt x="20" y="12" on="1"/>
				<pt x="16" y="12" on="1"/>
				<pt x="8" y="38" on="1"/>
				<pt x="8" y="0" on="1"/>
			</contour>
		</TTGlyph>
		<TTGlyph name="N" xMin="4" yMin="0" xMax="32" yMax="44">
			<contour>
				<pt x="4" y="0" on="1"/>
				<pt x="4" y="44" on="1"/>
				<pt x="10" y="44" on="1"/>
				<pt x="28" y="9" on="1"/>
				<pt x="28" y="44" on="1"/>
				<pt x="32" y="44" on="1"/>
				<pt x="32" y="0" on="1"/>
				<pt x="28" y="0" on="1"/>
				<pt x="8" y="39" on="1"/>
				<pt x="8" y="0" on="1"/>
			</contour>
		</TTGlyph>
		<TTGlyph name="O" xMin="4" yMin="0" xMax="32" yMax="44">
			<contour>
				<pt x="4" y="5" on="1"/>
				<pt x="4" y="39" on="1"/>
				<pt x="9" y="44" on="1"/>
				<pt x="27" y="44" on="1"/>
				<pt x="32" y="39" on="1"/>
				<pt x="32" y="5" on="1"/>
				<pt x="27" y="0" on="1"/>
				<pt x="9" y="0" on="1"/>
			</contour>
			<contour>
				<pt x="8" y="4" on="1"/>
				<pt x="28" y="4" on="1"/>
				<pt x="28" y="40" on="1"/>
				<pt x="8" y="40" on="1"/>
			</contour>
		</TTGlyph>
		<TTGlyph name="P" xMin="4" yMin="0" xMax="32" yMax="44">
			<contour>
				<pt x="4" y="0" on="1"/>
				<pt x="4" y="44" on="1"/>
				<pt x="27" y="44" on="1"/>
				<pt x="32" y="39" on="1"/>
				<pt x="32" y="21" on="1"/>
				<pt x="27" y="16" on="1"/>
				<pt x="8" y="16" on="1"/>
				<pt x="8" y="0" on="1"/>
			</contour>
			<contour>
				<pt x="8" y="20" on="1"/>
				<pt x="28" y="20" on="1"/>
				<pt x="28" y="40" on="1"/>
				<pt x="8" y="40" on="1"/>
			</contour>
		</TTGlyph>
		<TTGlyph name="Q" xMin="4" yMin="0" xMax="32" yMax="44">
			<contour>
				<pt x="4" y="5" on="1"/>
				<pt x="4" y="39" on="1"/>
				<pt x="9" y="44" on="1"/>
				<pt x="27" y="44" on="1"/>
				<pt x="32" y="39" on="1"/>
				<pt x="32" y="11" on="1"/>
				<pt x="28" y="7" on="1"/>
				<pt x="28" y="40" on="1"/>
				<pt x="8" y="40" on="1"/>
				<pt x="8" y="4" on="1"/>
				<pt x="25" y="4" on="1"/>
				<pt x="21" y="0" on="1"/>
				<pt x="9" y="0" on="1"/>
			</contour>
			<contour>
				<pt x="16" y="14" on="1"/>
				<pt x="19" y="16" on="1"/>
				<pt x="32" y="2" on="1"/>
				<pt x="32" y="0" on="1"/>
				<pt x="29" y="0" on="1"/>
			</contour>
		</TTGlyph>
		<TTGlyph name="R" xMin="4" yMin="0" xMax="32" yMax="44">
			<contour>
				<pt x="4" y="0" on="1"/>
				<pt x="4" y="44" on="1"/>
				<pt x="27" y="44" on="1"/>
				<pt x="32" y="39" on="1"/>
				<pt x="32" y="25" on="1"/>
				<pt x="27" y="20" on="1"/>
				<pt x="20" y="20" on="1"/>
				<pt x="32" y="3" on="1"/>
				<pt x="32" y="0" on="1"/>
				<pt x="29" y="0" on="1"/>
				<pt x="15" y="20" on="1"/>
				<pt x="8" y="20" on="1"/>
				<pt x="8" y="0" on="1"/>
			</contour>
			<contour>
				<pt x="8" y="24" on="1"/>
				<pt x="28" y="24" on="1"/>
				<pt x="28" y="40" on="1"/>
				<pt x="8" y="40" on="1"/>
			</contour>
		</TTGlyph>
		<TTGlyph name="S" xMin="4" yMin="0" xMax="32" yMax="44">
			<contour>
				<pt x="4" y="4" on="1"/>
				<pt x="28" y="4" on="1"/>
				<pt x="28" y="20" on="1"/>
				<pt x="9" y="20" on="1"/>
				<pt x="4" y="25" on="1"/>
				<pt x="4" y="39" on="1"/>
				<pt x="9" y="44" on="1"/>
				<pt x="28" y="44" on="1"/>
				<pt x="30" y="40" on="1"/>
				<pt x="8" y="40" on="1"/>
				<pt x="8" y="24" on="1"/>
				<pt x="27" y="24" on="1"/>
				<pt x="32" y="19" on="1"/>
				<pt x="32" y="5" on="1"/>
				<pt x="27" y="0" on="1"/>
				<pt x="6" y="0" on="1"/>
			</contour>
		</TTGlyph>
		<TTGlyph name="T" xMin="4" yMin="0" xMax="32" yMax="44">
			<contour>
				<pt x="4" y="40" on="1"/>
				<pt x="4" y="44" on="1"/>
				<pt x="32" y="44" on="1"/>
				<pt x="32" y="40" on="1"/>
				<pt x="20" y="40" on="1"/>
				<pt x="20" y="0" on="1"/>
				<pt x="16" y="0" on="1"/>
				<pt x="16" y="40" on="1"/>
			</contour>
		</TTGlyph>
		<TTGlyph name="U" xMin="4" yMin="0" xMax="32" yMax="44">
			<contour>
				<pt x="4" y="5" on="1"/>
				<pt x="4" y="44" on="1"/>
				<pt x="8" y="44" on="1"/>
				<pt x="8" y="4" on="1"/>
				<pt x="28" y="4" on="1"/>
				<pt x="28" y="44" on="1"/>
				<pt x="32" y="44" on="1"/>
				<pt x="32" y="5" on="1"/>
				<pt x="27" y="0" on="1"/>
				<pt x="9" y="0" on="1"/>
			</contour>
		</TTGlyph>
		<TTGlyph name="V" xMin="4" yMin="0" xMax="32" yMax="44">
			<contour>
				<pt x="4" y="40" on="1"/>
				<pt x="4" y="44" on="1"/>
				<pt x="7" y="44" on="1"/>
				<pt x="18" y="6" on="1"/>
				<pt x="29" y="44" on="1"/>
				<pt x="32" y="44" on="1"/>
				<pt x="32" y="40" on="1"/>
				<pt x="20" y="0" on="1"/>
				<pt x="16" y="0" on="1"/>
			</contour>
		</TTGlyph>
		<TTGlyph name="W" xMin="4" yMin="0" xMax="32" yMax="44">
			<contour>
				<pt x="4" y="16" on="1"/>
				<pt x="4" y="44" on="1"/>
				<pt x="8" y="44" on="1"/>
				<pt x="8" y="16" on="1"/>
				<pt x="10" y="9" on="1"/>
				<pt x="17" y="36" on="1"/>
				<pt x="19" y="36" on="1"/>
				<pt x="26" y="9" on="1"/>
				<pt x="28" y="16" on="1"/>
				<pt x="28" y="44" on="1"/>
				<pt x="32" y="44" on="1"/>
				<pt x="32" y="16" on="1"/>
				<pt x="27" y="0" on="1"/>
				<pt x="25" y="0" on="1"/>
				<pt x="18" y="26" on="1"/>
				<pt x="11" y="0" on="1"/>
				<pt x="9" y="0" on="1"/>
			</contour>
		</TTGlyph>
		<TTGlyph name="X" xMin="4" yMin="0" xMax="32" yMax="44">
			<contour>
				<pt x="4" y="0" on="1"/>
				<pt x="4" y="4" on="1"/>
				<pt x="16" y="22" on="1"/>
				<pt x="4" y="40" on="1"/>
				<pt x="4" y="44" on="1"/>
				<pt x="6" y="44" on="1"/>
				<pt x="18" y="26" on="1"/>
				<pt x="30" y="44" on="1"/>
				<pt x="32" y="44" on="1"/>
				<pt x="32" y="40" on="1"/>
				<pt x="20" y="22" on="1"/>
				<pt x="32" y="4" on="1"/>
				<pt x="32" y="0" on="1"/>
				<pt x="30" y="0" on="1"/>
				<pt x="18" y="18" on="1"/>
				<pt x="6" y="0" on="1"/>
			</contour>
		</TTGlyph>
		<TTGlyph name="Y" xMin="4" yMin="0" xMax="32" yMax="44">
			<contour>
				<pt x="4" y="39" on="1"/>
				<pt x="4" y="44" on="1"/>
				<pt x="6" y="44" on="1"/>
				<pt x="18" y="20" on="1"/>
				<pt x="30" y="44" on="1"/>
				<pt x="32" y="44" on="1"/>
				<pt x="32" y="39" on="1"/>
				<pt x="20" y="15" on="1"/>
				<pt x="20" y="0" on="1"/>
				<pt x="16" y="0" on="1"/>
				<pt x="16" y="15" on="1"/>
			</contour>
		</TTGlyph>
		<TTGlyph name="Z" xMin="4" yMin="0" xMax="32" yMax="44">
			<contour>
				<pt x="4" y="0" on="1"/>
				<pt x="4" y="5" on="1"/>
				<pt x="28" y="40" on="1"/>
				<pt x="4" y="40" on="1"/>
				<pt x="4" y="44" on="1"/>
				<pt x="32" y="44" on="1"/>
				<pt x="32" y="39" on="1"/>
				<pt x="8" y="4" on="1"/>
				<pt x="32" y="4" on="1"/>
				<pt x="32" y="0" on="1"/>
			</contour>
		</TTGlyph>
		<TTGlyph name="a" xMin="4" yMin="0" xMax="32" yMax="36">
			<contour>
				<pt x="4" y="5" on="1"/>
				<pt x="4" y="15" on="1"/>
				<pt x="9" y="20" on="1"/>
				<pt x="28" y="20" on="1"/>
				<pt x="28" y="32" on="1"/>
				<pt x="8" y="32" on="1"/>
				<pt x="10" y="36" on="1"/>
				<pt x="27" y="36" on="1"/>
				<pt x="32" y="31" on="1"/>
				<pt x="32" y="0" on="1"/>
				<pt x="9" y="0" on="1"/>
			</contour>
			<contour>
				<pt x="8" y="4" on="1"/>
				<pt x="28" y="4" on="1"/>
				<pt x="28" y="16" on="1"/>
				<pt x="8" y="16" on="1"/>
			</contour>
		</TTGlyph>
		<TTGlyph name="ampersand" xMin="4" yMin="0" xMax="32" yMax="44">
			<contour>
				<pt x="4" y="5" on="1"/>
				<pt x="4" y="18" on="1"/>
				<pt x="8" y="22" on="1"/>
				<pt x="4" y="26" on="1"/>
				<pt x="4" y="39" on="1"/>
				<pt x="9" y="44" on="1"/>
				<pt x="24" y="44" on="1"/>
				<pt x="26" y="40" on="1"/>
				<pt x="8" y="40" on="1"/>
				<pt x="8" y="24" on="1"/>
				<pt x="32" y="24" on="1"/>
				<pt x="32" y="20" on="1"/>
				<pt x="28" y="20" on="1"/>
				<pt x="28" y="0" on="1"/>
				<pt x="9" y="0" on="1"/>
			</contour>
			<contour>
				<pt x="8" y="4" on="1"/>
				<pt x="24" y="4" on="1"/>
				<pt x="24" y="20" on="1"/>
				<pt x="8" y="20" on="1"/>
			</contour>
		</TTGlyph>
		<TTGlyph name="asciicircum" xMin="4" yMin="28" xMax="32" yMax="45">
			<contour>
				<pt x="4" y="31" on="1"/>
				<pt x="18" y="45" on="1"/>
				<pt x="32" y="31" on="1"/>
				<pt x="30" y="28" on="1"/>
				<pt x="18" y="40" on="1"/>
				<pt x="6" y="28" on="1"/>
			</contour>
		</TTGlyph>
		<TTGlyph name="asciitilde" xMin="4" yMin="12" xMax="32" yMax="32">
			<contour>
				<pt x="4" y="16" on="1"/>
				<pt x="4" y="27" on="1"/>
				<pt x="9" y="32" on="1"/>
				<pt x="15" y="32" on="1"/>
				<pt x="20" y="27" on="1"/>
				<pt x="20" y="16" on="1"/>
				<pt x="28" y="16" on="1"/>
				<pt x="28" y="28" on="1"/>
				<pt x="32" y="28" on="1"/>
				<pt x="32" y="17" on="1"/>
				<pt x="27" y="12" on="1"/>
				<pt x="21" y="12" on="1"/>
				<pt x="16" y="17" on="1"/>
				<pt x="16" y="28" on="1"/>
				<pt x="8" y="28" on="1"/>
				<pt x="8" y="16" on="1"/>
			</contour>
		</TTGlyph>
		<TTGlyph name="asterisk" xMin="4" yMin="16" xMax="32" yMax="44">
			<contour>
				<pt x="4" y="33" on="1"/>
				<pt x="5" y="36" on="1"/>
				<pt x="16" y="32" on="1"/>
				<pt x="16" y="44" on="1"/>
				<pt x="20" y="44" on="1"/>
				<pt x="20" y="32" on="1"/>
				<pt x="31" y="36" on="1"/>
				<pt x="32" y="33" on="1"/>
				<pt x="21" y="28" on="1"/>
				<pt x="28" y="18" on="1"/>
				<pt x="25" y="16" on="1"/>
				<pt x="18" y="26" on="1"/>
				<pt x="11" y="16" on="1"/>
				<pt x="8" y="18" on="1"/>
				<pt x="15" y="28" on="1"/>
			</contour>
		</TTGlyph>
		<TTGlyph name="at" xMin="4" yMin="0" xMax="32" yMax="44">
			<contour>
				<pt x="4" y="5" on="1"/>
				<pt x="4" y="39" on="1"/>
				<pt x="9" y="44" on="1"/>
				<pt x="32" y="44" on="1"/>
				<pt x="32" y="12" on="1"/>
				<pt x="17" y="12" on="1"/>
				<pt x="12" y="17" on="1"/>
				<pt x="12" y="27" on="1"/>
				<pt x="17" y="32" on="1"/>
				<pt x="28" y="32" on="1"/>
				<pt x="28" y="40" on="1"/>
				<pt x="8" y="40" on="1"/>
				<pt x="8" y="4" on="1"/>
				<pt x="32" y="4" on="1"/>
				<pt x="30" y="0" on="1"/>
				<pt x="9" y="0" on="1"/>
			</contour>
			<contour>
				<pt x="16" y="16" on="1"/>
				<pt x="28" y="16" on="1"/>
				<pt x="28" y="28" on="1"/>
				<pt x="16" y="28" on="1"/>
			</contour>
		</TTGlyph>
		<TTGlyph name="b" xMin="4" yMin="0" xMax="32" yMax="48">
			<contour>
				<pt x="4" y="0" on="1"/>
				<pt x="4" y="48" on="1"/>
				<pt x="8" y="48" on="1"/>
				<pt x="8" y="36" on="1"/>
				<pt x="27" y="36" on="1"/>
				<pt x="32" y="31" on="1"/>
				<pt x="32" y="5" on="1"/>
				<pt x="27" y="0" on="1"/>
			</contour>
			<contour>
				<pt x="8" y="4" on="1"/>
				<pt x="28" y="4" on="1"/>
				<pt x="28" y="32" on="1"/>
				<pt x="8" y="32" on="1"/>
			</contour>
		</TTGlyph>
		<TTGlyph name="backslash" xMin="4" yMin="-6" xMax="32" yMax="46">
			<contour>
				<pt x="4" y="43" on="1"/>
				<pt x="7" y="46" on="1"/>
				<pt x="32" y="-3" on="1"/>
				<pt x="29" y="-6" on="1"/>
			</contour>
		</TTGlyph>
		<TTGlyph name="bar" xMin="16" yMin="-12" xMax="20" yMax="48">
			<contour>
				<pt x="16" y="-12" on="1"/>
				<pt x="16" y="48" on="1"/>
				<pt x="20" y="48" on="1"/>
				<pt x="20" y="-12" on="1"/>
			</contour>
		</TTGlyph>
		<TTGlyph name="braceleft" xMin="4" yMin="-12" xMax="28" yMax="48">
			<contour>
				<pt x="4" y="18" on="1"/>
				<pt x="12" y="26" on="1"/>
				<pt x="12" y="43" on="1"/>
				<pt x="17" y="48" on="1"/>
				<pt x="28" y="48" on="1"/>
				<pt x="28" y="44" on="1"/>
				<pt x="16" y="44" on="1"/>
				<pt x="16" y="25" on="1"/>
				<pt x="9" y="18" on="1"/>
				<pt x="16" y="11" on="1"/>
				<pt x="16" y="-8" on="1"/>
				<pt x="28" y="-8" on="1"/>
				<pt x="28" y="-12" on="1"/>
				<pt x="17" y="-12" on="1"/>
				<pt x="12" y="-7" on="1"/>
				<pt x="12" y="10" on="1"/>
			</contour>
		</TTGlyph>
		<TTGlyph name="braceright" xMin="8" yMin="-12" xMax="32" yMax="48">
			<contour>
				<pt x="8" y="-8" on="1"/>
				<pt x="20" y="-8" on="1"/>
				<pt x="20" y="11" on="1"/>
				<pt x="27" y="18" on="1"/>
				<pt x="20" y="25" on="1"/>
				<pt x="20" y="44" on="1"/>
				<pt x="8" y="44" on="1"/>
				<pt x="8" y="48" on="1"/>
				<pt x="19" y="48" on="1"/>
				<pt x="24" y="43" on="1"/>
				<pt x="24" y="26" on="1"/>
				<pt x="32" y="18" on="1"/>
				<pt x="24" y="10" on="1"/>
				<pt x="24" y="-7" on="1"/>
				<pt x="19" y="-12" on="1"/>
				<pt x="8" y="-12" on="1"/>
			</contour>
		</TTGlyph>
		<TTGlyph name="bracketleft" xMin="12" yMin="-12" xMax="28" yMax="48">
			<contour>
				<pt x="12" y="-12" on="1"/>
				<pt x="12" y="48" on="1"/>
				<pt x="28" y="48" on="1"/>
				<pt x="28" y="44" on="1"/>
				<pt x="16" y="44" on="1"/>
				<pt x="16" y="-8" on="1"/>
				<pt x="28" y="-8" on="1"/>
				<pt x="28" y="-12" on="1"/>
			</contour>
		</TTGlyph>
		<TTGlyph name="bracketright" xMin="8" yMin="-12" xMax="24" yMax="48">
			<contour>
				<pt x="8" y="-8" on="1"/>
				<pt x="20" y="-8" on="1"/>
				<pt x="20" y="44" on="1"/>
				<pt x="8" y="44" on="1"/>
				<pt x="8" y="48" on="1"/>
				<pt x="24" y="48" on="1"/>
				<pt x="24" y="-12" on="1"/>
				<pt x="8" y="-12" on="1"/>
			</contour>
		</TTGlyph>
		<TTGlyph name="c" xMin="4" yMin="0" xMax="32" yMax="36">
			<contour>
				<pt x="4" y="5" on="1"/>
				<pt x="4" y="31" on="1"/>
				<pt x="9" y="36" on="1"/>
				<pt x="30" y="36" on="1"/>
				<pt x="32" y="32" on="1"/>
				<pt x="8" y="32" on="1"/>
				<pt x="8" y="4" on="1"/>
				<pt x="32" y="4" on="1"/>
				<pt x="30" y="0" on="1"/>
				<pt x="9" y="0" on="1"/>
			</contour>
		</TTGlyph>
		<TTGlyph name="colon" xMin="16" yMin="0" xMax="20" yMax="36">
			<contour>
				<pt x="16" y="0" on="1"/>
				<pt x="16" y="8" on="1"/>
				<pt x="20" y="8" on="1"/>
				<pt x="20" y="0" on="1"/>
			</contour>
			<contour>
				<pt x="16" y="28" on="1"/>
				<pt x="16" y="36" on="1"/>
				<pt x="20" y="36" on="1"/>
				<pt x="20" y="28" on="1"/>
			</contour>
		</TTGlyph>
		<TTGlyph name="comma" xMin="8" yMin="-12" xMax="20" yMax="8">
			<contour>
				<pt x="8" y="-9" on="1"/>
				<pt x="17" y="8" on="1"/>
				<pt x="20" y="8" on="1"/>
				<pt x="20" y="5" on="1"/>
				<pt x="11" y="-12" on="1"/>
				<pt x="8" y="-12" on="1"/>
			</contour>
		</TTGlyph>
		<TTGlyph name="d" xMin="4" yMin="0" xMax="32" yMax="48">
			<contour>
				<pt x="4" y="5" on="1"/>
				<pt x="4" y="31" on="1"/>
				<pt x="9" y="36" on="1"/>
				<pt x="28" y="36" on="1"/>
				<pt x="28" y="48" on="1"/>
				<pt x="32" y="48" on="1"/>
				<pt x="32" y="0" on="1"/>
				<pt x="9" y="0" on="1"/>
			</contour>
			<contour>
				<pt x="8" y="4" on="1"/>
				<pt x="28" y="4" on="1"/>
				<pt x="28" y="32" on="1"/>
				<pt x="8" y="32" on="1"/>
			</contour>
		</TTGlyph>
		<TTGlyph name="dollar" xMin="4" yMin="-12" xMax="32" yMax="48">
			<contour>
				<pt x="4" y="4" on="1"/>
				<pt x="28" y="4" on="1"/>
				<pt x="28" y="16" on="1"/>
				<pt x="9" y="16" on="1"/>
				<pt x="4" y="21" on="1"/>
				<pt x="4" y="31" on="1"/>
				<pt x="9" y="36" on="1"/>
				<pt x="16" y="36" on="1"/>
				<pt x="16" y="48" on="1"/>
				<pt x="20" y="48" on="1"/>
				<pt x="20" y="36" on="1"/>
				<pt x="28" y="36" on="1"/>
				<pt x="30" y="32" on="1"/>
				<pt x="8" y="32" on="1"/>
				<pt x="8" y="20" on="1"/>
				<pt x="27" y="20" on="1"/>
				<pt x="32" y="15" on="1"/>
				<pt x="32" y="5" on="1"/>
				<pt x="27" y="0" on="1"/>
				<pt x="20" y="0" on="1"/>
				<pt x="20" y="-12" on="1"/>
				<pt x="16" y="-12" on="1"/>
				<pt x="16" y="0" on="1"/>
				<pt x="6" y="0" on="1"/>
			</contour>
		</TTGlyph>
		<TTGlyph name="e" xMin="4" yMin="0" xMax="32" yMax="36">
			<contour>
				<pt x="4" y="5" on="1"/>
				<pt x="4" y="31" on="1"/>
				<pt x="9" y="36" on="1"/>
				<pt x="27" y="36" on="1"/>
				<pt x="32" y="31" on="1"/>
				<pt x="32" y="16" on="1"/>
				<pt x="8" y="16" on="1"/>
				<pt x="8" y="4" on="1"/>
				<pt x="30" y="4" on="1"/>
				<pt x="28" y="0" on="1"/>
				<pt x="9" y="0" on="1"/>
			</contour>
			<contour>
				<pt x="8" y="20" on="1"/>
				<pt x="28" y="20" on="1"/>
				<pt x="28" y="32" on="1"/>
				<pt x="8" y="32" on="1"/>
			</contour>
		</TTGlyph>
		<TTGlyph name="eight" xMin="4" yMin="0" xMax="32" yMax="44">
			<contour>
				<pt x="4" y="5" on="1"/>
				<pt x="4" y="18" on="1"/>
				<pt x="8" y="22" on="1"/>
				<pt x="4" y="26" on="1"/>
				<pt x="4" y="39" on="1"/>
				<pt x="9" y="44" on="1"/>
				<pt x="27" y="44" on="1"/>
				<pt x="32" y="39" on="1"/>
				<pt x="32" y="26" on="1"/>
				<pt x="28" y="22" on="1"/>
				<pt x="32" y="18" on="1"/>
				<pt x="32" y="5" on="1"/>
				<pt x="27" y="0" on="1"/>
				<pt x="9" y="0" on="1"/>
			</contour>
			<contour>
				<pt x="8" y="4" on="1"/>
				<pt x="28" y="4" on="1"/>
				<pt x="28" y="20" on="1"/>
				<pt x="8" y="20" on="1"/>
			</contour>
			<contour>
				<pt x="8" y="24" on="1"/>
				<pt x="28" y="24" on="1"/>
				<pt x="28" y="40" on="1"/>
				<pt x="8" y="40" on="1"/>
			</contour>
		</TTGlyph>
		<TTGlyph name="equal" xMin="4" yMin="12" xMax="32" yMax="32">
			<contour>
				<pt x="4" y="12" on="1"/>
				<pt x="4" y="16" on="1"/>
				<pt x="32" y="16" on="1"/>
				<pt x="32" y="12" on="1"/>
			</contour>
			<contour>
				<pt x="4" y="28" on="1"/>
				<pt x="4" y="32" on="1"/>
				<pt x="32" y="32" on="1"/>
				<pt x="32" y="28" on="1"/>
			</contour>
		</TTGlyph>
		<TTGlyph name="exclam" xMin="16" yMin="0" xMax="20" yMax="44">
			<contour>
				<pt x="16" y="0" on="1"/>
				<pt x="16" y="8" on="1"/>
				<pt x="20" y="8" on="1"/>
				<pt x="20" y="0" on="1"/>
			</contour>
			<contour>
				<pt x="16" y="16" on="1"/>
				<pt x="16" y="44" on="1"/>
				<pt x="20" y="44" on="1"/>
				<pt x="20" y="16" on="1"/>
			</contour>
		</TTGlyph>
		<TTGlyph name="f" xMin="8" yMin="0" xMax="30" yMax="48">
			<contour>
				<pt x="8" y="0" on="1"/>
				<pt x="8" y="43" on="1"/>
				<pt x="13" y="48" on="1"/>
				<pt x="28" y="48" on="1"/>
				<pt x="30" y="44" on="1"/>
				<pt x="12" y="44" on="1"/>
				<pt x="12" y="32" on="1"/>
				<pt x="28" y="32" on="1"/>
				<pt x="28" y="28" on="1"/>
				<pt x="12" y="28" on="1"/>
				<pt x="12" y="0" on="1"/>
			</contour>
		</TTGlyph>
		<TTGlyph name="five" xMin="4" yMin="0" xMax="32" yMax="44">
			<contour>
				<pt x="4" y="4" on="1"/>
				<pt x="28" y="4" on="1"/>
				<pt x="28" y="24" on="1"/>
				<pt x="4" y="24" on="1"/>
				<pt x="4" y="44" on="1"/>
				<pt x="32" y="44" on="1"/>
				<pt x="32" y="40" on="1"/>
				<pt x="8" y="40" on="1"/>
				<pt x="8" y="28" on="1"/>
				<pt x="27" y="28" on="1"/>
				<pt x="32" y="23" on="1"/>
				<pt x="32" y="5" on="1"/>
				<pt x="27" y="0" on="1"/>
				<pt x="6" y="0" on="1"/>
			</contour>
		</TTGlyph>
		<TTGlyph name="four" xMin="4" yMin="0" xMax="32" yMax="44">
			<contour>
				<pt x="4" y="8" on="1"/>
				<pt x="4" y="17" on="1"/>
				<pt x="21" y="44" on="1"/>
				<pt x="24" y="44" on="1"/>
				<pt x="24" y="41" on="1"/>
				<pt x="8" y="16" on="1"/>
				<pt x="8" y="12" on="1"/>
				<pt x="28" y="12" on="1"/>
				<pt x="28" y="28" on="1"/>
				<pt x="32" y="28" on="1"/>
				<pt x="32" y="0" on="1"/>
				<pt x="28" y="0" on="1"/>
				<pt x="28" y="8" on="1"/>
			</contour>
		</TTGlyph>
		<TTGlyph name="g" xMin="4" yMin="-12" xMax="32" yMax="36">
			<contour>
				<pt x="4" y="9" on="1"/>
				<pt x="4" y="31" on="1"/>
				<pt x="9" y="36" on="1"/>
				<pt x="32" y="36" on="1"/>
				<pt x="32" y="-7" on="1"/>
				<pt x="27" y="-12" on="1"/>
				<pt x="8" y="-12" on="1"/>
				<pt x="6" y="-8" on="1"/>
				<pt x="28" y="-8" on="1"/>
				<pt x="28" y="4" on="1"/>
				<pt x="9" y="4" on="1"/>
			</contour>
			<contour>
				<pt x="8" y="8" on="1"/>
				<pt x="28" y="8" on="1"/>
				<pt x="28" y="32" on="1"/>
				<pt x="8" y="32" on="1"/>
			</contour>
		</TTGlyph>
		<TTGlyph name="grave" xMin="8" yMin="32" xMax="24" yMax="48">
			<contour>
				<pt x="8" y="45" on="1"/>
				<pt x="10" y="48" on="1"/>
				<pt x="24" y="35" on="1"/>
				<pt x="22" y="32" on="1"/>
			</contour>
		</TTGlyph>
		<TTGlyph name="greater" xMin="8" yMin="4" xMax="29" yMax="40">
			<contour>
				<pt x="8" y="6" on="1"/>
				<pt x="24" y="22" on="1"/>
				<pt x="8" y="38" on="1"/>
				<pt x="11" y="40" on="1"/>
				<pt x="29" y="22" on="1"/>
				<pt x="11" y="4" on="1"/>
			</contour>
		</TTGlyph>
		<TTGlyph name="h" xMin="4" yMin="0" xMax="32" yMax="48">
			<contour>
				<pt x="4" y="0" on="1"/>
				<pt x="4" y="48" on="1"/>
				<pt x="8" y="48" on="1"/>
				<pt x="8" y="36" on="1"/>
				<pt x="27" y="36" on="1"/>
				<pt x="32" y="31" on="1"/>
				<pt x="32" y="0" on="1"/>
				<pt x="28" y="0" on="1"/>
				<pt x="28" y="32" on="1"/>
				<pt x="8" y="32" on="1"/>
				<pt x="8" y="0" on="1"/>
			</contour>
		</TTGlyph>
		<TTGlyph name="hyphen" xMin="4" yMin="20" xMax="32" yMax="24">
			<contour>
				<pt x="4" y="20" on="1"/>
				<pt x="4" y="24" on="1"/>
				<pt x="32" y="24" on="1"/>
				<pt x="32" y="20" on="1"/>
			</contour>
		</TTGlyph>
		<TTGlyph name="i" xMin="8" yMin="0" xMax="24" yMax="48">
			<contour>
				<pt x="8" y="28" on="1"/>
				<pt x="8" y="32" on="1"/>
				<pt x="24" y="32" on="1"/>
				<pt x="24" y="0" on="1"/>
				<pt x="20" y="0" on="1"/>
				<pt x="20" y="28" on="1"/>
			</contour>
			<contour>
				<pt x="20" y="40" on="1"/>
				<pt x="20" y="48" on="1"/>
				<pt x="24" y="48" on="1"/>
				<pt x="24" y="40" on="1"/>
			</contour>
		</TTGlyph>
		<TTGlyph name="j" xMin="6" yMin="-12" xMax="24" yMax="48">
			<contour>
				<pt x="6" y="-8" on="1"/>
				<pt x="20" y="-8" on="1"/>
				<pt x="20" y="28" on="1"/>
				<pt x="8" y="28" on="1"/>
				<pt x="8" y="32" on="1"/>
				<pt x="24" y="32" on="1"/>
				<pt x="24" y="-7" on="1"/>
				<pt x="19" y="-12" on="1"/>
				<pt x="8" y="-12" on="1"/>
			</contour>
			<contour>
				<pt x="20" y="40" on="1"/>
				<pt x="20" y="48" on="1"/>
				<pt x="24" y="48" on="1"/>
				<pt x="24" y="40" on="1"/>
			</contour>
		</TTGlyph>
		<TTGlyph name="k" xMin="4" yMin="0" xMax="32" yMax="48">
			<contour>
				<pt x="4" y="0" on="1"/>
				<pt x="4" y="48" on="1"/>
				<pt x="8" y="48" on="1"/>
				<pt x="8" y="18" on="1"/>
				<pt x="25" y="36" on="1"/>
				<pt x="28" y="36" on="1"/>
				<pt x="28" y="33" on="1"/>
				<pt x="16" y="21" on="1"/>
				<pt x="32" y="3" on="1"/>
				<pt x="32" y="0" on="1"/>
				<pt x="29" y="0" on="1"/>
				<pt x="13" y="18" on="1"/>
				<pt x="8" y="13" on="1"/>
				<pt x="8" y="0" on="1"/>
			</contour>
		</TTGlyph>
		<TTGlyph name="l" xMin="12" yMin="0" xMax="30" yMax="48">
			<contour>
				<pt x="12" y="5" on="1"/>
				<pt x="12" y="48" on="1"/>
				<pt x="16" y="48" on="1"/>
				<pt x="16" y="4" on="1"/>
				<pt x="30" y="4" on="1"/>
				<pt x="28" y="0" on="1"/>
				<pt x="17" y="0" on="1"/>
			</contour>
		</TTGlyph>
		<TTGlyph name="less" xMin="7" yMin="4" xMax="28" yMax="40">
			<contour>
				<pt x="7" y="22" on="1"/>
				<pt x="25" y="40" on="1"/>
				<pt x="28" y="38" on="1"/>
				<pt x="12" y="22" on="1"/>
				<pt x="28" y="6" on="1"/>
				<pt x="25" y="4" on="1"/>
			</contour>
		</TTGlyph>
		<TTGlyph name="m" xMin="4" yMin="0" xMax="32" yMax="36">
			<contour>
				<pt x="4" y="0" on="1"/>
				<pt x="4" y="36" on="1"/>
				<pt x="27" y="36" on="1"/>
				<pt x="32" y="31" on="1"/>
				<pt x="32" y="0" on="1"/>
				<pt x="28" y="0" on="1"/>
				<pt x="28" y="32" on="1"/>
				<pt x="20" y="32" on="1"/>
				<pt x="20" y="0" on="1"/>
				<pt x="16" y="0" on="1"/>
				<pt x="16" y="32" on="1"/>
				<pt x="8" y="32" on="1"/>
				<pt x="8" y="0" on="1"/>
			</contour>
		</TTGlyph>
		<TTGlyph name="n" xMin="4" yMin="0" xMax="32" yMax="36">
			<contour>
				<pt x="4" y="0" on="1"/>
				<pt x="4" y="36" on="1"/>
				<pt x="27" y="36" on="1"/>
				<pt x="32" y="31" on="1"/>
				<pt x="32" y="0" on="1"/>
				<pt x="28" y="0" on="1"/>
				<pt x="28" y="32" on="1"/>
				<pt x="8" y="32" on="1"/>
				<pt x="8" y="0" on="1"/>
			</contour>
		</TTGlyph>
		<TTGlyph name="nine" xMin="4" yMin="0" xMax="32" yMax="44">
			<contour>
				<pt x="4" y="25" on="1"/>
				<pt x="4" y="39" on="1"/>
				<pt x="9" y="44" on="1"/>
				<pt x="27" y="44" on="1"/>
				<pt x="32" y="39" on="1"/>
				<pt x="32" y="5" on="1"/>
				<pt x="27" y="0" on="1"/>
				<pt x="8" y="0" on="1"/>
				<pt x="6" y="4" on="1"/>
				<pt x="28" y="4" on="1"/>
				<pt x="28" y="20" on="1"/>
				<pt x="9" y="20" on="1"/>
			</contour>
			<contour>
				<pt x="8" y="24" on="1"/>
				<pt x="28" y="24" on="1"/>
				<pt x="28" y="40" on="1"/>
				<pt x="8" y="40" on="1"/>
			</contour>
		</TTGlyph>
		<TTGlyph name="numbersign" xMin="4" yMin="0" xMax="32" yMax="44">
			<contour>
				<pt x="4" y="12" on="1"/>
				<pt x="4" y="16" on="1"/>
				<pt x="12" y="16" on="1"/>
				<pt x="12" y="28" on="1"/>
				<pt x="4" y="28" on="1"/>
				<pt x="4" y="32" on="1"/>
				<pt x="12" y="32" on="1"/>
				<pt x="12" y="44" on="1"/>
				<pt x="16" y="44" on="1"/>
				<pt x="16" y="32" on="1"/>
				<pt x="20" y="32" on="1"/>
				<pt x="20" y="44" on="1"/>
				<pt x="24" y="44" on="1"/>
				<pt x="24" y="32" on="1"/>
				<pt x="32" y="32" on="1"/>
				<pt x="32" y="28" on="1"/>
				<pt x="24" y="28" on="1"/>
				<pt x="24" y="16" on="1"/>
				<pt x="32" y="16" on="1"/>
				<pt x="32" y="12" on="1"/>
				<pt x="24" y="12" on="1"/>
				<pt x="24" y="0" on="1"/>
				<pt x="20" y="0" on="1"/>
				<pt x="20" y="12" on="1"/>
				<pt x="16" y="12" on="1"/>
				<pt x="16" y="0" on="1"/>
				<pt x="12" y="0" on="1"/>
				<pt x="12" y="12" on="1"/>
			</contour>
			<contour>
				<pt x="16" y="16" on="1"/>
				<pt x="20" y="16" on="1"/>
				<pt x="20" y="28" on="1"/>
				<pt x="16" y="28" on="1"/>
			</contour>
		</TTGlyph>
		<TTGlyph name="o" xMin="4" yMin="0" xMax="32" yMax="36">
			<contour>
				<pt x="4" y="5" on="1"/>
				<pt x="4" y="31" on="1"/>
				<pt x="9" y="36" on="1"/>
				<pt x="27" y="36" on="1"/>
				<pt x="32" y="31" on="1"/>
				<pt x="32" y="5" on="1"/>
				<pt x="27" y="0" on="1"/>
				<pt x="9" y="0" on="1"/>
			</contour>
			<contour>
				<pt x="8" y="4" on="1"/>
				<pt x="28" y="4" on="1"/>
				<pt x="28" y="32" on="1"/>
				<pt x="8" y="32" on="1"/>
			</contour>
		</TTGlyph>
		<TTGlyph name="one" xMin="4" yMin="0" xMax="32" yMax="44">
			<contour>
				<pt x="4" y="0" on="1"/>
				<pt x="4" y="4" on="1"/>
				<pt x="16" y="4" on="1"/>
				<pt x="16" y="40" on="1"/>
				<pt x="6" y="40" on="1"/>
				<pt x="8" y="44" on="1"/>
				<pt x="20" y="44" on="1"/>
				<pt x="20" y="4" on="1"/>
				<pt x="32" y="4" on="1"/>
				<pt x="32" y="0" on="1"/>
			</contour>
		</TTGlyph>
		<TTGlyph name="p" xMin="4" yMin="-12" xMax="32" yMax="36">
			<contour>
				<pt x="4" y="-12" on="1"/>
				<pt x="4" y="36" on="1"/>
				<pt x="27" y="36" on="1"/>
				<pt x="32" y="31" on="1"/>
				<pt x="32" y="5" on="1"/>
				<pt x="27" y="0" on="1"/>
				<pt x="8" y="0" on="1"/>
				<pt x="8" y="-12" on="1"/>
			</contour>
			<contour>
				<pt x="8" y="4" on="1"/>
				<pt x="28" y="4" on="1"/>
				<pt x="28" y="32" on="1"/>
				<pt x="8" y="32" on="1"/>
			</contour>
		</TTGlyph>
		<TTGlyph name="parenleft" xMin="12" yMin="-12" xMax="28" yMax="48">
			<contour>
				<pt x="12" y="1" on="0"/>
				<pt x="12" y="35" on="0"/>
				<pt x="25" y="48" on="1"/>
				<pt x="28" y="46" on="1"/>
				<pt x="16" y="34" on="0"/>
				<pt x="16" y="2" on="0"/>
				<pt x="28" y="-10" on="1"/>
				<pt x="25" y="-12" on="1"/>
			</contour>
		</TTGlyph>
		<TTGlyph name="parenright" xMin="8" yMin="-12" xMax="24" yMax="48">
			<contour>
				<pt x="8" y="-10" on="1"/>
				<pt x="20" y="2" on="0"/>
				<pt x="20" y="34" on="0"/>
				<pt x="8" y="46" on="1"/>
				<pt x="11" y="48" on="1"/>
				<pt x="24" y="35" on="0"/>
				<pt x="24" y="1" on="0"/>
				<pt x="11" y="-12" on="1"/>
			</contour>
		</TTGlyph>
		<TTGlyph name="percent" xMin="4" yMin="0" xMax="32" yMax="44">
			<contour>
				<pt x="4" y="11" on="1"/>
				<pt x="30" y="36" on="1"/>
				<pt x="32" y="33" on="1"/>
				<pt x="6" y="8" on="1"/>
			</contour>
			<contour>
				<pt x="4" y="33" on="1"/>
				<pt x="4" y="39" on="1"/>
				<pt x="9" y="44" on="1"/>
				<pt x="15" y="44" on="1"/>
				<pt x="20" y="39" on="1"/>
				<pt x="20" y="33" on="1"/>
				<pt x="15" y="28" on="1"/>
				<pt x="9" y="28" on="1"/>
			</contour>
			<contour>
				<pt x="8" y="32" on="1"/>
				<pt x="16" y="32" on="1"/>
				<pt x="16" y="40" on="1"/>
				<pt x="8" y="40" on="1"/>
			</contour>
			<contour>
				<pt x="16" y="5" on="1"/>
				<pt x="16" y="11" on="1"/>
				<pt x="21" y="16" on="1"/>
				<pt x="27" y="16" on="1"/>
				<pt x="32" y="11" on="1"/>
				<pt x="32" y="5" on="1"/>
				<pt x="27" y="0" on="1"/>
				<pt x="21" y="0" on="1"/>
			</contour>
			<contour>
				<pt x="20" y="4" on="1"/>
				<pt x="28" y="4" on="1"/>
				<pt x="28" y="12" on="1"/>
				<pt x="20" y="12" on="1"/>
			</contour>
		</TTGlyph>
		<TTGlyph name="period" xMin="16" yMin="0" xMax="20" yMax="8">
			<contour>
				<pt x="16" y="0" on="1"/>
				<pt x="16" y="8" on="1"/>
				<pt x="20" y="8" on="1"/>
				<pt x="20" y="0" on="1"/>
			</contour>
		</TTGlyph>
		<TTGlyph name="plus" xMin="4" yMin="8" xMax="32" yMax="36">
			<contour>
				<pt x="4" y="20" on="1"/>
				<pt x="4" y="24" on="1"/>
				<pt x="16" y="24" on="1"/>
				<pt x="16" y="36" on="1"/>
				<pt x="20" y="36" on="1"/>
				<pt x="20" y="24" on="1"/>
				<pt x="32" y="24" on="1"/>
				<pt x="32" y="20" on="1"/>
				<pt x="20" y="20" on="1"/>
				<pt x="20" y="8" on="1"/>
				<pt x="16" y="8" on="1"/>
				<pt x="16" y="20" on="1"/>
			</contour>
		</TTGlyph>
		<TTGlyph name="q" xMin="4" yMin="-12" xMax="32" yMax="36">
			<contour>
				<pt x="4" y="5" on="1"/>
				<pt x="4" y="31" on="1"/>
				<pt x="9" y="36" on="1"/>
				<pt x="32" y="36" on="1"/>
				<pt x="32" y="-12" on="1"/>
				<pt x="28" y="-12" on="1"/>
				<pt x="28" y="0" on="1"/>
				<pt x="9" y="0" on="1"/>
			</contour>
			<contour>
				<pt x="8" y="4" on="1"/>
				<pt x="28" y="4" on="1"/>
				<pt x="28" y="32" on="1"/>
				<pt x="8" y="32" on="1"/>
			</contour>
		</TTGlyph>
		<TTGlyph name="question" xMin="4" yMin="0" xMax="32" yMax="44">
			<contour>
				<pt x="4" y="40" on="1"/>
				<pt x="6" y="44" on="1"/>
				<pt x="27" y="44" on="1"/>
				<pt x="32" y="39" on="1"/>
				<pt x="32" y="25" on="1"/>
				<pt x="27" y="20" on="1"/>
				<pt x="16" y="20" on="1"/>
				<pt x="16" y="16" on="1"/>
				<pt x="12" y="16" on="1"/>
				<pt x="12" y="24" on="1"/>
				<pt x="28" y="24" on="1"/>
				<pt x="28" y="40" on="1"/>
			</contour>
			<contour>
				<pt x="12" y="0" on="1"/>
				<pt x="12" y="8" on="1"/>
				<pt x="16" y="8" on="1"/>
				<pt x="16" y="0" on="1"/>
			</contour>
		</TTGlyph>
		<TTGlyph name="quotedbl" xMin="12" yMin="32" xMax="24" yMax="48">
			<contour>
				<pt x="12" y="32" on="1"/>
				<pt x="12" y="48" on="1"/>
				<pt x="16" y="48" on="1"/>
				<pt x="16" y="32" on="1"/>
			</contour>
			<contour>
				<pt x="20" y="32" on="1"/>
				<pt x="20" y="48" on="1"/>
				<pt x="24" y="48" on="1"/>
				<pt x="24" y="32" on="1"/>
			</contour>
		</TTGlyph>
		<TTGlyph name="quotesingle" xMin="16" yMin="32" xMax="20" yMax="48">
			<contour>
				<pt x="16" y="32" on="1"/>
				<pt x="16" y="48" on="1"/>
				<pt x="20" y="48" on="1"/>
				<pt x="20" y="32" on="1"/>
			</contour>
		</TTGlyph>
		<TTGlyph name="r" xMin="8" yMin="0" xMax="32" yMax="36">
			<contour>
				<pt x="8" y="0" on="1"/>
				<pt x="8" y="32" on="1"/>
				<pt x="12" y="36" on="1"/>
				<pt x="30" y="36" on="1"/>
				<pt x="32" y="32" on="1"/>
				<pt x="12" y="32" on="1"/>
				<pt x="12" y="0" on="1"/>
			</contour>
		</TTGlyph>
		<TTGlyph name="s" xMin="4" yMin="0" xMax="32" yMax="36">
			<contour>
				<pt x="4" y="4" on="1"/>
				<pt x="28" y="4" on="1"/>
				<pt x="28" y="16" on="1"/>
				<pt x="9" y="16" on="1"/>
				<pt x="4" y="21" on="1"/>
				<pt x="4" y="31" on="1"/>
				<pt x="9" y="36" on="1"/>
				<pt x="28" y="36" on="1"/>
				<pt x="30" y="32" on="1"/>
				<pt x="8" y="32" on="1"/>
				<pt x="8" y="20" on="1"/>
				<pt x="27" y="20" on="1"/>
				<pt x="32" y="15" on="1"/>
				<pt x="32" y="5" on="1"/>
				<pt x="27" y="0" on="1"/>
				<pt x="6" y="0" on="1"/>
			</contour>
		</TTGlyph>
		<TTGlyph name="semicolon" xMin="8" yMin="-12" xMax="20" yMax="36">
			<contour>
				<pt x="8" y="-9" on="1"/>
				<pt x="17" y="8" on="1"/>
				<pt x="20" y="8" on="1"/>
				<pt x="20" y="5" on="1"/>
				<pt x="11" y="-12" on="1"/>
				<pt x="8" y="-12" on="1"/>
			</contour>
			<contour>
				<pt x="16" y="28" on="1"/>
				<pt x="16" y="36" on="1"/>
				<pt x="20" y="36" on="1"/>
				<pt x="20" y="28" on="1"/>
			</contour>
		</TTGlyph>
		<TTGlyph name="seven" xMin="4" yMin="0" xMax="32" yMax="44">
			<contour>
				<pt x="4" y="40" on="1"/>
				<pt x="4" y="44" on="1"/>
				<pt x="32" y="44" on="1"/>
				<pt x="32" y="34" on="1"/>
				<pt x="15" y="0" on="1"/>
				<pt x="12" y="0" on="1"/>
				<pt x="12" y="3" on="1"/>
				<pt x="28" y="35" on="1"/>
				<pt x="28" y="40" on="1"/>
			</contour>
		</TTGlyph>
		<TTGlyph name="six" xMin="4" yMin="0" xMax="32" yMax="44">
			<contour>
				<pt x="4" y="5" on="1"/>
				<pt x="4" y="39" on="1"/>
				<pt x="9" y="44" on="1"/>
				<pt x="28" y="44" on="1"/>
				<pt x="30" y="40" on="1"/>
				<pt x="8" y="40" on="1"/>
				<pt x="8" y="28" on="1"/>
				<pt x="27" y="28" on="1"/>
				<pt x="32" y="23" on="1"/>
				<pt x="32" y="5" on="1"/>
				<pt x="27" y="0" on="1"/>
				<pt x="9" y="0" on="1"/>
			</contour>
			<contour>
				<pt x="8" y="4" on="1"/>
				<pt x="28" y="4" on="1"/>
				<pt x="28" y="24" on="1"/>
				<pt x="8" y="24" on="1"/>
			</contour>
		</TTGlyph>
		<TTGlyph name="slash" xMin="4" yMin="-6" xMax="32" yMax="46">
			<contour>
				<pt x="4" y="-3" on="1"/>
				<pt x="29" y="46" on="1"/>
				<pt x="32" y="43" on="1"/>
				<pt x="7" y="-6" on="1"/>
			</contour>
		</TTGlyph>
		<TTGlyph name="t" xMin="8" yMin="0" xMax="30" yMax="48">
			<contour>
				<pt x="8" y="5" on="1"/>
				<pt x="8" y="48" on="1"/>
				<pt x="12" y="48" on="1"/>
				<pt x="12" y="36" on="1"/>
				<pt x="28" y="36" on="1"/>
				<pt x="28" y="32" on="1"/>
				<pt x="12" y="32" on="1"/>
				<pt x="12" y="4" on="1"/>
				<pt x="30" y="4" on="1"/>
				<pt x="28" y="0" on="1"/>
				<pt x="13" y="0" on="1"/>
			</contour>
		</TTGlyph>
		<TTGlyph name="three" xMin="4" yMin="0" xMax="32" yMax="44">
			<contour>
				<pt x="4" y="4" on="1"/>
				<pt x="28" y="4" on="1"/>
				<pt x="28" y="20" on="1"/>
				<pt x="8" y="20" on="1"/>
				<pt x="8" y="24" on="1"/>
				<pt x="28" y="24" on="1"/>
				<pt x="28" y="40" on="1"/>
				<pt x="4" y="40" on="1"/>
				<pt x="6" y="44" on="1"/>
				<pt x="27" y="44" on="1"/>
				<pt x="32" y="39" on="1"/>
				<pt x="32" y="26" on="1"/>
				<pt x="28" y="22" on="1"/>
				<pt x="32" y="18" on="1"/>
				<pt x="32" y="5" on="1"/>
				<pt x="27" y="0" on="1"/>
				<pt x="6" y="0" on="1"/>
			</contour>
		</TTGlyph>
		<TTGlyph name="two" xMin="4" yMin="0" xMax="32" yMax="44">
			<contour>
				<pt x="4" y="0" on="1"/>
				<pt x="4" y="19" on="1"/>
				<pt x="9" y="24" on="1"/>
				<pt x="28" y="24" on="1"/>
				<pt x="28" y="40" on="1"/>
				<pt x="6" y="40" on="1"/>
				<pt x="8" y="44" on="1"/>
				<pt x="27" y="44" on="1"/>
				<pt x="32" y="39" on="1"/>
				<pt x="32" y="25" on="1"/>
				<pt x="27" y="20" on="1"/>
				<pt x="8" y="20" on="1"/>
				<pt x="8" y="4" on="1"/>
				<pt x="32" y="4" on="1"/>
				<pt x="32" y="0" on="1"/>
			</contour>
		</TTGlyph>
		<TTGlyph name="u" xMin="4" yMin="0" xMax="32" yMax="36">
			<contour>
				<pt x="4" y="5" on="1"/>
				<pt x="4" y="36" on="1"/>
				<pt x="8" y="36" on="1"/>
				<pt x="8" y="4" on="1"/>
				<pt x="28" y="4" on="1"/>
				<pt x="28" y="36" on="1"/>
				<pt x="32" y="36" on="1"/>
				<pt x="32" y="0" on="1"/>
				<pt x="9" y="0" on="1"/>
			</contour>
		</TTGlyph>
		<TTGlyph name="underscore" xMin="4" yMin="-12" xMax="32" yMax="-8">
			<contour>
				<pt x="4" y="-8" on="1"/>
				<pt x="32" y="-8" on="1"/>
				<pt x="32" y="-12" on="1"/>
				<pt x="4" y="-12" on="1"/>
			</contour>
		</TTGlyph>
		<TTGlyph name="v" xMin="4" yMin="0" xMax="32" yMax="36">
			<contour>
				<pt x="4" y="32" on="1"/>
				<pt x="4" y="36" on="1"/>
				<pt x="7" y="36" on="1"/>
				<pt x="18" y="6" on="1"/>
				<pt x="29" y="36" on="1"/>
				<pt x="32" y="36" on="1"/>
				<pt x="32" y="32" on="1"/>
				<pt x="20" y="0" on="1"/>
				<pt x="16" y="0" on="1"/>
			</contour>
		</TTGlyph>
		<TTGlyph name="w" xMin="4" yMin="0" xMax="32" yMax="36">
			<contour>
				<pt x="4" y="16" on="1"/>
				<pt x="4" y="36" on="1"/>
				<pt x="8" y="36" on="1"/>
				<pt x="8" y="16" on="1"/>
				<pt x="10" y="8" on="1"/>
				<pt x="17" y="28" on="1"/>
				<pt x="19" y="28" on="1"/>
				<pt x="26" y="8" on="1"/>
				<pt x="28" y="16" on="1"/>
				<pt x="28" y="36" on="1"/>
				<pt x="32" y="36" on="1"/>
				<pt x="32" y="16" on="1"/>
				<pt x="27" y="0" on="1"/>
				<pt x="25" y="0" on="1"/>
				<pt x="18" y="20" on="1"/>
				<pt x="11" y="0" on="1"/>
				<pt x="9" y="0" on="1"/>
			</contour>
		</TTGlyph>
		<TTGlyph name="x" xMin="4" yMin="0" xMax="32" yMax="36">
			<contour>
				<pt x="4" y="0" on="1"/>
				<pt x="4" y="3" on="1"/>
				<pt x="15" y="18" on="1"/>
				<pt x="4" y="33" on="1"/>
				<pt x="4" y="36" on="1"/>
				<pt x="7" y="36" on="1"/>
				<pt x="18" y="20" on="1"/>
				<pt x="29" y="36" on="1"/>
				<pt x="32" y="36" on="1"/>
				<pt x="32" y="33" on="1"/>
				<pt x="21" y="18" on="1"/>
				<pt x="32" y="3" on="1"/>
				<pt x="32" y="0" on="1"/>
				<pt x="29" y="0" on="1"/>
				<pt x="18" y="16" on="1"/>
				<pt x="7" y="0" on="1"/>
			</contour>
		</TTGlyph>
		<TTGlyph name="y" xMin="4" yMin="-12" xMax="32" yMax="36">
			<contour>
				<pt x="4" y="32" on="1"/>
				<pt x="4" y="36" on="1"/>
				<pt x="7" y="36" on="1"/>
				<pt x="18" y="7" on="1"/>
				<pt x="29" y="36" on="1"/>
				<pt x="32" y="36" on="1"/>
				<pt x="32" y="32" on="1"/>
				<pt x="15" y="-12" on="1"/>
				<pt x="12" y="-12" on="1"/>
				<pt x="12" y="-8" on="1"/>
				<pt x="16" y="2" on="1"/>
			</contour>
		</TTGlyph>
		<TTGlyph name="z" xMin="4" yMin="0" xMax="32" yMax="36">
			<contour>
				<pt x="4" y="0" on="1"/>
				<pt x="4" y="5" on="1"/>
				<pt x="28" y="32" on="1"/>
				<pt x="4" y="32" on="1"/>
				<pt x="4" y="36" on="1"/>
				<pt x="32" y="36" on="1"/>
				<pt x="32" y="31" on="1"/>
				<pt x="8" y="4" on="1"/>
				<pt x="32" y="4" on="1"/>
				<pt x="32" y="0" on="1"/>
			</contour>
		</TTGlyph>
		<TTGlyph name="zero" xMin="4" yMin="0" xMax="32" yMax="44">
			<contour>
				<pt x="4" y="5" on="1"/>
				<pt x="4" y="39" on="1"/>
				<pt x="9" y="44" on="1"/>
				<pt x="27" y="44" on="1"/>
				<pt x="32" y="39" on="1"/>
				<pt x="32" y="5" on="1"/>
				<pt x="27" y="0" on="1"/>
				<pt x="9" y="0" on="1"/>
			</contour>
			<contour>
				<pt x="8" y="4" on="1"/>
				<pt x="28" y="4" on="1"/>
				<pt x="28" y="40" on="1"/>
				<pt x="8" y="40" on="1"/>
			</contour>
			<contour>
				<pt x="16" y="16" on="1"/>
				<pt x="16" y="28" on="1"/>
				<pt x="20" y="28" on="1"/>
				<pt x="20" y="16" on="1"/>
			</contour>
		</TTGlyph>
</ttFont>
